<svg xmlns="http://www.w3.org/2000/svg" version="1.1" xmlns:xlink="http://www.w3.org/1999/xlink" xmlns:svgjs="http://svgjs.dev/svgjs" width="1440" height="720" preserveAspectRatio="none" viewBox="0 0 1440 720"><g mask="url(&quot;#SvgjsMask1395&quot;)" fill="none"><rect width="1440" height="720" x="0" y="0" fill="url(&quot;#SvgjsLinearGradient1396&quot;)"></rect><path d="M935.172,553.271C964.449,553.09,991.709,540.403,1008.298,516.278C1027.715,488.039,1041.223,452.358,1025.496,421.91C1008.786,389.558,971.582,374.359,935.172,374.698C899.381,375.031,864.333,391.864,847.713,423.564C832.037,453.463,841.589,489.202,860.462,517.192C877.033,541.768,905.532,553.454,935.172,553.271" fill="rgba(16, 100, 189, 0.4)" class="triangle-float3"></path><path d="M1263.856,346.726C1328.315,351.741,1402.381,346.962,1436.333,291.94C1471.346,235.198,1447.448,163.291,1411.824,106.931C1378.975,54.961,1325.328,20.144,1263.856,19.071C1200.436,17.964,1136.266,45.507,1106.663,101.605C1078.543,154.894,1099.82,217.568,1132.346,268.288C1161.878,314.339,1209.314,342.482,1263.856,346.726" fill="rgba(16, 100, 189, 0.4)" class="triangle-float3"></path><path d="M731.171,598.358C800.811,596.223,868.895,568.769,904.426,508.837C940.625,447.777,939.077,370.712,902.024,310.166C866.483,252.091,799.226,223.654,731.171,225.729C666.769,227.693,612.753,266.157,577.462,320.064C537.59,380.968,503.289,456.335,538.484,520.056C574.41,585.101,656.899,600.635,731.171,598.358" fill="rgba(16, 100, 189, 0.4)" class="triangle-float1"></path><path d="M990.492,598.094C1010.819,597.766,1030.239,589.709,1041.436,572.741C1053.943,553.789,1059.201,529.843,1048.876,509.619C1037.676,487.682,1015.123,473,990.492,472.953C965.786,472.906,943.307,487.576,931.722,509.397C920.796,529.977,923.744,555.01,936.614,574.434C948.226,591.959,969.472,598.433,990.492,598.094" fill="rgba(16, 100, 189, 0.4)" class="triangle-float2"></path><path d="M187.28461380736564 382.10795045125144L174.27995095040987 455.8610584821624 291.41194442525415 438.49149875214056z" fill="rgba(16, 100, 189, 0.4)" class="triangle-float1"></path><path d="M112.75928976944053 213.7797864910123L158.8930191699582 386.61189127211173 271.3777612854842 277.9866384740796z" fill="rgba(16, 100, 189, 0.4)" class="triangle-float1"></path><path d="M916.9039086162074 257.3730686852612L744.6530309127933 263.38820188029337 922.9190418112396 429.6239463886754z" fill="rgba(16, 100, 189, 0.4)" class="triangle-float1"></path><path d="M440.362963678093 334.6785121784003L359.8978017042532 200.76199406132764 225.98128358718054 281.22715603516747 306.44644556102037 415.1436741522401z" fill="rgba(16, 100, 189, 0.4)" class="triangle-float1"></path><path d="M309.597,564.117C343.574,563.169,372.734,542.228,389.69,512.769C406.602,483.385,409.83,447.79,393.721,417.958C376.796,386.616,345.205,363.537,309.597,364.447C275.249,365.325,249.765,392.309,232.603,422.075C215.463,451.803,205.019,487.296,221.372,517.464C238.363,548.81,273.956,565.111,309.597,564.117" fill="rgba(16, 100, 189, 0.4)" class="triangle-float1"></path><path d="M771.3053178015012-20.303991962577832L704.5000206938963 100.2159543246373 825.0199669811115 167.02125143224217 891.8252640887164 46.501305145027054z" fill="rgba(16, 100, 189, 0.4)" class="triangle-float2"></path><path d="M-65.13 76.67 a123.14 123.14 0 1 0 246.28 0 a123.14 123.14 0 1 0 -246.28 0z" fill="rgba(16, 100, 189, 0.4)" class="triangle-float2"></path><path d="M1191.674706974746 349.59410498551085L1312.1339219452784 433.9405553547017 1396.4803723144694 313.48134038416913 1276.0211573439367 229.13489001497828z" fill="rgba(16, 100, 189, 0.4)" class="triangle-float2"></path><path d="M753.854,709.607C784.728,709.361,805.636,682.816,822.267,656.803C840.898,627.661,864.225,593.517,847.389,563.302C830.345,532.714,788.749,531.111,753.854,534.023C724.649,536.46,698.414,551.456,683.946,576.943C669.665,602.099,670.041,632.317,683.527,657.908C698.065,685.496,722.671,709.856,753.854,709.607" fill="rgba(16, 100, 189, 0.4)" class="triangle-float1"></path><path d="M1201.59 381.17 a177.91 177.91 0 1 0 355.82 0 a177.91 177.91 0 1 0 -355.82 0z" fill="rgba(16, 100, 189, 0.4)" class="triangle-float1"></path><path d="M194.075,162.04C237.276,164.451,278.148,140.626,299.964,103.261C321.961,65.586,323.206,17.896,299.691,-18.851C277.705,-53.208,234.739,-65.396,194.075,-62.208C158.789,-59.442,131.097,-35.101,113.714,-4.27C96.694,25.916,91.778,61.281,106.855,92.482C124.195,128.368,154.281,159.819,194.075,162.04" fill="rgba(16, 100, 189, 0.4)" class="triangle-float1"></path><path d="M726.18 573.91 a135.99 135.99 0 1 0 271.98 0 a135.99 135.99 0 1 0 -271.98 0z" fill="rgba(16, 100, 189, 0.4)" class="triangle-float1"></path><path d="M58.801,626.768C101.318,626.255,140.904,602.016,159.902,563.976C177.246,529.247,165.627,488.636,143.828,456.515C124.846,428.544,92.56,416.752,58.801,415.001C20.743,413.027,-21.239,415.546,-43.009,446.825C-67.438,481.925,-67.674,529.248,-46.616,566.468C-25.25,604.231,15.416,627.292,58.801,626.768" fill="rgba(16, 100, 189, 0.4)" class="triangle-float1"></path></g><defs><mask id="SvgjsMask1395"><rect width="1440" height="720" fill="#ffffff"></rect></mask><linearGradient x1="12.5%" y1="-25%" x2="87.5%" y2="125%" gradientUnits="userSpaceOnUse" id="SvgjsLinearGradient1396"><stop stop-color="#0e2a47" offset="0"></stop><stop stop-color="rgba(8, 0, 158, 1)" offset="1"></stop></linearGradient><style>
                @keyframes float1 {
                    0%{transform: translate(0, 0)}
                    50%{transform: translate(-10px, 0)}
                    100%{transform: translate(0, 0)}
                }

                .triangle-float1 {
                    animation: float1 5s infinite;
                }

                @keyframes float2 {
                    0%{transform: translate(0, 0)}
                    50%{transform: translate(-5px, -5px)}
                    100%{transform: translate(0, 0)}
                }

                .triangle-float2 {
                    animation: float2 4s infinite;
                }

                @keyframes float3 {
                    0%{transform: translate(0, 0)}
                    50%{transform: translate(0, -10px)}
                    100%{transform: translate(0, 0)}
                }

                .triangle-float3 {
                    animation: float3 6s infinite;
                }
            </style></defs></svg>